<svg xmlns="http://www.w3.org/2000/svg" xmlns:xlink="http://www.w3.org/1999/xlink" viewBox="0 0 337.6 336"><defs><style>.cls-1{fill:url(#linear-gradient);}.cls-2{fill:url(#linear-gradient-2);}.cls-3{fill:url(#linear-gradient-3);}.cls-4{fill:url(#linear-gradient-4);}.cls-5{fill:url(#linear-gradient-5);}.cls-6{fill:url(#linear-gradient-6);}</style><linearGradient id="linear-gradient" x1="145.2" y1="257.27" x2="192.4" y2="257.27" gradientUnits="userSpaceOnUse"><stop offset="0" stop-color="#2cd1b0"/><stop offset="1" stop-color="#834efd"/></linearGradient><linearGradient id="linear-gradient-2" x1="222.47" y1="187.92" x2="262.26" y2="187.92" xlink:href="#linear-gradient"/><linearGradient id="linear-gradient-3" x1="83.57" y1="209.06" x2="97.81" y2="169.95" xlink:href="#linear-gradient"/><linearGradient id="linear-gradient-4" x1="101.58" y1="324.19" x2="227.83" y2="-22.68" xlink:href="#linear-gradient"/><linearGradient id="linear-gradient-5" x1="149.47" y1="293.78" x2="187.68" y2="293.78" xlink:href="#linear-gradient"/><linearGradient id="linear-gradient-6" x1="212.41" y1="188.85" x2="280.51" y2="188.85" xlink:href="#linear-gradient"/></defs><title>Asset 1</title><g id="Layer_2" data-name="Layer 2"><g id="Layer_5" data-name="Layer 5"><path class="cls-1" d="M168.8,238.53c-10.51,0-23.6,0-23.6,12.14,0,9.91,18.22,22.4,21.87,24.8a3.09,3.09,0,0,0,3.46,0c3.66-2.4,21.87-14.89,21.87-24.8C192.4,238.53,179.31,238.53,168.8,238.53Z"/><path class="cls-2" d="M261.6,202.87a9.81,9.81,0,0,1-10.88,5.79,11.51,11.51,0,0,1-9.2-12.65c.09-.84.29-1.66.39-2.5a9,9,0,0,0-5-9.48,7.51,7.51,0,0,0-10,3.1,5.73,5.73,0,0,0,2.14,7.65,4,4,0,0,0,5.06-.9,2.55,2.55,0,0,0,.47-2.32,1.63,1.63,0,0,0-1.11-1.2.83.83,0,0,0-1.19.78c-.07.61-.41.89-1,.79a1.58,1.58,0,0,1-1.29-1.2,2.79,2.79,0,0,1,1-2.93,4.22,4.22,0,0,1,5.35.2,5.79,5.79,0,0,1,1.34,7.05,7.46,7.46,0,0,1-8.59,3.72,9.22,9.22,0,0,1-6.21-11.49,11.06,11.06,0,0,1,13.77-7.37,13.19,13.19,0,0,1,5.14,2.9,9.22,9.22,0,0,0,8.81,2.15,8,8,0,0,0,6-7.53,6.5,6.5,0,0,0-5-6.56,4.81,4.81,0,0,0-5.68,3.06,3.26,3.26,0,0,0,1.17,3.71,1.91,1.91,0,0,0,2.05.14.91.91,0,0,0,.14-1.65.82.82,0,0,1-.07-1.34,1.59,1.59,0,0,1,1.58-.41,2.81,2.81,0,0,1,2.11,2.59,4.29,4.29,0,0,1-2.93,4.29A5.82,5.82,0,0,1,243.3,179a7.39,7.39,0,0,1,.92-9.37A9,9,0,0,1,255,168.18c6.34,3.49,7.26,12.47,1.47,17.71a12.32,12.32,0,0,1-4.63,2.62,9.36,9.36,0,0,0-5.22,4,8.27,8.27,0,0,0,1.93,11.3,6.48,6.48,0,0,0,8.66-.8,4.76,4.76,0,0,0,.9-5.27,3.5,3.5,0,0,0-3.07-2.26,2.39,2.39,0,0,0-2.4,1.19,1.47,1.47,0,0,0-.12,1.29.81.81,0,0,0,1.19.5.86.86,0,0,1,1.3.69,1.8,1.8,0,0,1-.83,1.8,3,3,0,0,1-3.37-.05A4.4,4.4,0,0,1,249.1,196a6,6,0,0,1,7.22-4.08,8.05,8.05,0,0,1,5.28,10.94Z"/><path class="cls-3" d="M80.61,207.72c12.83,7.06,31.83-.82,37.8-3.63-.58-4.52-2.49-15.57-7.84-24.28a17.06,17.06,0,0,1-9.81,20c-5.83,2.33-13.07,1.06-17-3.25-7.43-8.06-2.52-25.81,7.41-29-11.2-.84-23.27,4.25-27.81,6.39C64.18,180.46,67.76,200.69,80.61,207.72Z"/><path class="cls-4" d="M291.11.38A3.22,3.22,0,0,0,288.3.27c-22.24,10.07-43,32.94-61.66,68a261.72,261.72,0,0,0-57.78-6.89A254.54,254.54,0,0,0,111,68.28C92.29,33.23,71.55,10.34,49.3.27a3.22,3.22,0,0,0-2.81.11C11.35,19.51-13.58,124.37,8.1,209.53,28.85,291.08,85.93,336,168.8,336s140-44.92,160.7-126.47C351.18,124.37,326.25,19.51,291.11.38ZM58.47,169.31c1.11-.62,27.33-14.59,45.68-4.54s20.68,39.69,20.76,40.94a3.19,3.19,0,0,1-1.63,3c-.82.45-15.29,8.18-30.2,8.18a31.91,31.91,0,0,1-15.5-3.63c-18.36-10.07-20.67-39.71-20.75-41A3.16,3.16,0,0,1,58.47,169.31ZM323.4,208C309.27,263.49,271,329.68,168.8,329.68c-82.78,0-123.63-43.45-143.67-89.47,17.76,6.12,46-3.54,46-3.54a160.52,160.52,0,0,1,46.23-12.16c19.21-1.86,21.85-14.61,22-20.53a16.93,16.93,0,0,0-.51-4.48c-.83-3.79-8.48-16.42,11.74-36.64,25.15-25.15,17-75.44,17-75.44-.12-.74-.25-1.46-.38-2.15,0-.15-.05-.29-.08-.44C172.67,83,182,80.89,188,85.8c8.93,7.3,23.53,19.47,35.69,42.18s62.46,34.88,62.46,34.88,29.12,8,43.91,6.78A255.47,255.47,0,0,1,323.4,208Z"/><path class="cls-5" d="M186.41,305.86c4.05-4.39-1.84-21.48-13.49-25a15.39,15.39,0,0,0-8.56-.06c-11.64,3.33-17.65,20.33-13.65,24.79,2,2.22,7,1.87,10.2-.13,6.21-3.88,5.57-13.82,7.65-13.82s1.41,10,7.65,13.93C179.41,307.62,184.39,308.06,186.41,305.86Z"/><path class="cls-6" d="M244.24,216.72c-14.9,0-29.37-7.73-30.19-8.18a3.17,3.17,0,0,1-1.63-3c.08-1.25,2.4-30.89,20.77-40.94s44.57,3.92,45.67,4.54a3.16,3.16,0,0,1,1.64,3c-.09,1.25-2.39,30.89-20.75,41A31.92,31.92,0,0,1,244.24,216.72Zm-25.32-12.8c6,2.81,25,10.69,37.79,3.63s16.44-27.26,17.28-33.8c-6-2.81-24.9-10.62-37.78-3.61S219.76,197.38,218.92,203.92Z"/></g></g></svg>